# MagicaVoxel @ Ephtracy

# material
mtllib Archer.mtl
usemtl palette

# normals
vn -1 0 0
vn 1 0 0
vn 0 0 1
vn 0 0 -1
vn 0 -1 0
vn 0 1 0

# texcoords
vt 0.841797 0.5
vt 0.869141 0.5
vt 0.958984 0.5
vt 0.982422 0.5
vt 0.994141 0.5

# verts
v -6 10 2
v -6 10 -1
v -6 11 3
v -6 11 2
v -6 11 -1
v -6 11 -2
v -6 12 3
v -6 12 2
v -6 12 -1
v -6 12 -2
v -6 13 2
v -6 13 -1
v -5 0 3
v -5 0 -1
v -5 1 3
v -5 1 2
v -5 7 2
v -5 7 -1
v -5 9 3
v -5 9 -2
v -5 10 2
v -5 10 -1
v -5 11 3
v -5 11 2
v -5 11 -1
v -5 11 -2
v -5 14 2
v -5 14 -1
v -5 15 3
v -5 15 2
v -5 15 -1
v -5 15 -2
v -5 18 3
v -5 18 2
v -5 18 -1
v -5 18 -2
v -5 19 2
v -5 19 -1
v -4 7 2
v -4 7 -1
v -4 8 -1
v -4 8 -2
v -4 8 -3
v -4 8 -4
v -4 9 2
v -4 9 -2
v -4 12 3
v -4 12 2
v -4 12 -1
v -4 12 -2
v -4 13 3
v -4 13 2
v -4 13 1
v -4 13 -0
v -4 13 -1
v -4 13 -2
v -4 13 -3
v -4 13 -4
v -4 14 3
v -4 14 2
v -4 14 1
v -4 14 -0
v -4 14 -1
v -4 14 -2
v -4 15 3
v -4 15 2
v -4 15 -1
v -4 15 -2
v -4 18 3
v -4 18 2
v -4 18 -1
v -4 18 -2
v -4 19 3
v -4 19 2
v -4 19 -1
v -4 19 -2
v -3 7 -3
v -3 7 -4
v -3 8 3
v -3 8 2
v -3 8 -2
v -3 8 -3
v -3 8 -4
v -3 8 -5
v -3 9 3
v -3 9 2
v -3 13 2
v -3 13 1
v -3 13 -0
v -3 13 -1
v -3 13 -2
v -3 13 -3
v -3 13 -4
v -3 13 -5
v -3 14 2
v -3 14 1
v -3 14 -0
v -3 14 -1
v -3 16 3
v -3 16 2
v -3 17 2
v -3 18 3
v -3 18 2
v -3 19 1
v -3 19 -0
v -3 20 -0
v -3 20 -2
v -3 21 1
v -3 21 -0
v -3 21 -2
v -3 21 -3
v -3 22 -0
v -3 22 -3
v -2 0 3
v -2 0 -1
v -2 1 3
v -2 1 2
v -2 4 -0
v -2 4 -1
v -2 5 2
v -2 5 -0
v -2 8 -3
v -2 8 -4
v -2 13 -3
v -2 13 -4
v -1 16 3
v -1 16 2
v -1 17 2
v -1 18 3
v -1 18 2
v -4 16 3
v -4 16 2
v -4 17 2
v -4 18 3
v -4 18 2
v -3 0 3
v -3 0 -1
v -3 1 3
v -3 1 2
v -3 4 -0
v -3 4 -1
v -3 5 2
v -3 5 -0
v -3 8 -3
v -3 8 -4
v -3 13 -3
v -3 13 -4
v -2 7 -3
v -2 7 -4
v -2 8 3
v -2 8 2
v -2 8 -2
v -2 8 -3
v -2 8 -4
v -2 8 -5
v -2 9 3
v -2 9 2
v -2 13 2
v -2 13 1
v -2 13 -0
v -2 13 -1
v -2 13 -2
v -2 13 -3
v -2 13 -4
v -2 13 -5
v -2 14 2
v -2 14 1
v -2 14 -0
v -2 14 -1
v -2 16 3
v -2 16 2
v -2 17 2
v -2 18 3
v -2 18 2
v -2 19 1
v -2 19 -0
v -2 20 -0
v -2 20 -2
v -2 21 1
v -2 21 -0
v -2 21 -2
v -2 21 -3
v -2 22 -0
v -2 22 -3
v -1 7 2
v -1 7 -1
v -1 8 -1
v -1 8 -2
v -1 8 -3
v -1 8 -4
v -1 9 2
v -1 9 -2
v -1 12 3
v -1 12 2
v -1 12 -1
v -1 12 -2
v -1 13 3
v -1 13 2
v -1 13 1
v -1 13 -0
v -1 13 -1
v -1 13 -2
v -1 13 -3
v -1 13 -4
v -1 14 3
v -1 14 2
v -1 14 1
v -1 14 -0
v -1 14 -1
v -1 14 -2
v -1 15 3
v -1 15 2
v -1 15 -1
v -1 15 -2
v -1 18 3
v -1 18 2
v -1 18 -1
v -1 18 -2
v -1 19 3
v -1 19 2
v -1 19 -1
v -1 19 -2
v 0 0 3
v 0 0 -1
v 0 1 3
v 0 1 2
v 0 7 2
v 0 7 -1
v 0 9 3
v 0 9 -2
v 0 10 2
v 0 10 -1
v 0 11 3
v 0 11 2
v 0 11 -1
v 0 11 -2
v 0 14 2
v 0 14 -1
v 0 15 3
v 0 15 2
v 0 15 -1
v 0 15 -2
v 0 18 3
v 0 18 2
v 0 18 -1
v 0 18 -2
v 0 19 2
v 0 19 -1
v 1 10 2
v 1 10 -1
v 1 11 3
v 1 11 2
v 1 11 -1
v 1 11 -2
v 1 12 3
v 1 12 2
v 1 12 -1
v 1 12 -2
v 1 13 2
v 1 13 -1
v -6 11 3
v -6 12 3
v -5 0 3
v -5 1 3
v -5 9 3
v -5 11 3
v -5 15 3
v -5 18 3
v -4 12 3
v -4 13 3
v -4 14 3
v -4 15 3
v -4 16 3
v -4 18 3
v -4 19 3
v -3 0 3
v -3 1 3
v -3 8 3
v -3 9 3
v -3 16 3
v -3 18 3
v -2 0 3
v -2 1 3
v -2 8 3
v -2 9 3
v -2 16 3
v -2 18 3
v -1 12 3
v -1 13 3
v -1 14 3
v -1 15 3
v -1 16 3
v -1 18 3
v -1 19 3
v 0 0 3
v 0 1 3
v 0 9 3
v 0 11 3
v 0 15 3
v 0 18 3
v 1 11 3
v 1 12 3
v -6 10 2
v -6 11 2
v -6 12 2
v -6 13 2
v -5 1 2
v -5 7 2
v -5 10 2
v -5 11 2
v -5 14 2
v -5 15 2
v -5 18 2
v -5 19 2
v -4 7 2
v -4 9 2
v -4 12 2
v -4 13 2
v -4 14 2
v -4 15 2
v -4 16 2
v -4 17 2
v -4 18 2
v -4 19 2
v -3 1 2
v -3 5 2
v -3 8 2
v -3 9 2
v -3 13 2
v -3 14 2
v -3 16 2
v -3 17 2
v -3 18 2
v -2 1 2
v -2 5 2
v -2 8 2
v -2 9 2
v -2 13 2
v -2 14 2
v -2 16 2
v -2 17 2
v -2 18 2
v -1 7 2
v -1 9 2
v -1 12 2
v -1 13 2
v -1 14 2
v -1 15 2
v -1 16 2
v -1 17 2
v -1 18 2
v -1 19 2
v 0 1 2
v 0 7 2
v 0 10 2
v 0 11 2
v 0 14 2
v 0 15 2
v 0 18 2
v 0 19 2
v 1 10 2
v 1 11 2
v 1 12 2
v 1 13 2
v -4 13 1
v -4 14 1
v -3 13 1
v -3 14 1
v -3 19 1
v -3 21 1
v -2 13 1
v -2 14 1
v -2 19 1
v -2 21 1
v -1 13 1
v -1 14 1
v -3 4 -0
v -3 5 -0
v -3 21 -0
v -3 22 -0
v -2 4 -0
v -2 5 -0
v -2 21 -0
v -2 22 -0
v -4 8 -3
v -4 13 -3
v -3 7 -3
v -3 8 -3
v -3 13 -3
v -2 7 -3
v -2 8 -3
v -2 13 -3
v -1 8 -3
v -1 13 -3
v -3 8 -4
v -3 13 -4
v -2 8 -4
v -2 13 -4
v -4 13 -0
v -4 14 -0
v -3 13 -0
v -3 14 -0
v -3 19 -0
v -3 20 -0
v -2 13 -0
v -2 14 -0
v -2 19 -0
v -2 20 -0
v -1 13 -0
v -1 14 -0
v -6 10 -1
v -6 11 -1
v -6 12 -1
v -6 13 -1
v -5 0 -1
v -5 7 -1
v -5 10 -1
v -5 11 -1
v -5 14 -1
v -5 15 -1
v -5 18 -1
v -5 19 -1
v -4 7 -1
v -4 8 -1
v -4 12 -1
v -4 13 -1
v -4 14 -1
v -4 15 -1
v -4 18 -1
v -4 19 -1
v -3 0 -1
v -3 4 -1
v -3 13 -1
v -3 14 -1
v -2 0 -1
v -2 4 -1
v -2 13 -1
v -2 14 -1
v -1 7 -1
v -1 8 -1
v -1 12 -1
v -1 13 -1
v -1 14 -1
v -1 15 -1
v -1 18 -1
v -1 19 -1
v 0 0 -1
v 0 7 -1
v 0 10 -1
v 0 11 -1
v 0 14 -1
v 0 15 -1
v 0 18 -1
v 0 19 -1
v 1 10 -1
v 1 11 -1
v 1 12 -1
v 1 13 -1
v -6 11 -2
v -6 12 -2
v -5 9 -2
v -5 11 -2
v -5 15 -2
v -5 18 -2
v -4 8 -2
v -4 9 -2
v -4 12 -2
v -4 13 -2
v -4 14 -2
v -4 15 -2
v -4 18 -2
v -4 19 -2
v -3 8 -2
v -3 13 -2
v -3 20 -2
v -3 21 -2
v -2 8 -2
v -2 13 -2
v -2 20 -2
v -2 21 -2
v -1 8 -2
v -1 9 -2
v -1 12 -2
v -1 13 -2
v -1 14 -2
v -1 15 -2
v -1 18 -2
v -1 19 -2
v 0 9 -2
v 0 11 -2
v 0 15 -2
v 0 18 -2
v 1 11 -2
v 1 12 -2
v -3 8 -3
v -3 13 -3
v -3 21 -3
v -3 22 -3
v -2 8 -3
v -2 13 -3
v -2 21 -3
v -2 22 -3
v -4 8 -4
v -4 13 -4
v -3 7 -4
v -3 8 -4
v -3 13 -4
v -2 7 -4
v -2 8 -4
v -2 13 -4
v -1 8 -4
v -1 13 -4
v -3 8 -5
v -3 13 -5
v -2 8 -5
v -2 13 -5
v -5 0 3
v -3 0 3
v -2 0 3
v 0 0 3
v -5 0 -1
v -3 0 -1
v -2 0 -1
v 0 0 -1
v -3 4 -0
v -2 4 -0
v -3 4 -1
v -2 4 -1
v -3 5 2
v -2 5 2
v -3 5 -0
v -2 5 -0
v -3 7 -3
v -2 7 -3
v -3 7 -4
v -2 7 -4
v -3 8 3
v -2 8 3
v -3 8 2
v -2 8 2
v -4 8 -1
v -1 8 -1
v -4 8 -2
v -3 8 -2
v -2 8 -2
v -1 8 -2
v -4 8 -3
v -3 8 -3
v -2 8 -3
v -1 8 -3
v -4 8 -4
v -3 8 -4
v -2 8 -4
v -1 8 -4
v -3 8 -5
v -2 8 -5
v -5 9 3
v -3 9 3
v -2 9 3
v 0 9 3
v -4 9 2
v -3 9 2
v -2 9 2
v -1 9 2
v -5 9 -2
v -4 9 -2
v -1 9 -2
v 0 9 -2
v -6 10 2
v -5 10 2
v 0 10 2
v 1 10 2
v -6 10 -1
v -5 10 -1
v 0 10 -1
v 1 10 -1
v -6 11 3
v -5 11 3
v 0 11 3
v 1 11 3
v -6 11 2
v -5 11 2
v 0 11 2
v 1 11 2
v -6 11 -1
v -5 11 -1
v 0 11 -1
v 1 11 -1
v -6 11 -2
v -5 11 -2
v 0 11 -2
v 1 11 -2
v -4 14 3
v -1 14 3
v -5 14 2
v -4 14 2
v -3 14 2
v -2 14 2
v -1 14 2
v 0 14 2
v -4 14 1
v -3 14 1
v -2 14 1
v -1 14 1
v -4 14 -0
v -3 14 -0
v -2 14 -0
v -1 14 -0
v -5 14 -1
v -4 14 -1
v -3 14 -1
v -2 14 -1
v -1 14 -1
v 0 14 -1
v -4 14 -2
v -1 14 -2
v -5 15 3
v -4 15 3
v -1 15 3
v 0 15 3
v -5 15 2
v -4 15 2
v -1 15 2
v 0 15 2
v -5 15 -1
v -4 15 -1
v -1 15 -1
v 0 15 -1
v -5 15 -2
v -4 15 -2
v -1 15 -2
v 0 15 -2
v -4 18 3
v -3 18 3
v -2 18 3
v -1 18 3
v -4 18 2
v -3 18 2
v -2 18 2
v -1 18 2
v -3 20 -0
v -2 20 -0
v -3 20 -2
v -2 20 -2
v -3 21 -2
v -2 21 -2
v -3 21 -3
v -2 21 -3
v -5 1 3
v -3 1 3
v -2 1 3
v 0 1 3
v -5 1 2
v -3 1 2
v -2 1 2
v 0 1 2
v -5 7 2
v -4 7 2
v -1 7 2
v 0 7 2
v -5 7 -1
v -4 7 -1
v -1 7 -1
v 0 7 -1
v -3 8 -3
v -2 8 -3
v -3 8 -4
v -2 8 -4
v -6 12 3
v -4 12 3
v -1 12 3
v 1 12 3
v -6 12 2
v -4 12 2
v -1 12 2
v 1 12 2
v -6 12 -1
v -4 12 -1
v -1 12 -1
v 1 12 -1
v -6 12 -2
v -4 12 -2
v -1 12 -2
v 1 12 -2
v -4 13 3
v -1 13 3
v -6 13 2
v -4 13 2
v -3 13 2
v -2 13 2
v -1 13 2
v 1 13 2
v -4 13 1
v -3 13 1
v -2 13 1
v -1 13 1
v -4 13 -0
v -3 13 -0
v -2 13 -0
v -1 13 -0
v -6 13 -1
v -4 13 -1
v -3 13 -1
v -2 13 -1
v -1 13 -1
v 1 13 -1
v -4 13 -2
v -3 13 -2
v -2 13 -2
v -1 13 -2
v -4 13 -3
v -3 13 -3
v -2 13 -3
v -1 13 -3
v -4 13 -4
v -3 13 -4
v -2 13 -4
v -1 13 -4
v -3 13 -5
v -2 13 -5
v -4 16 3
v -3 16 3
v -2 16 3
v -1 16 3
v -4 16 2
v -3 16 2
v -2 16 2
v -1 16 2
v -5 18 3
v -4 18 3
v -1 18 3
v 0 18 3
v -5 18 2
v -4 18 2
v -1 18 2
v 0 18 2
v -5 18 -1
v -4 18 -1
v -1 18 -1
v 0 18 -1
v -5 18 -2
v -4 18 -2
v -1 18 -2
v 0 18 -2
v -4 19 3
v -1 19 3
v -5 19 2
v -4 19 2
v -1 19 2
v 0 19 2
v -3 19 1
v -2 19 1
v -3 19 -0
v -2 19 -0
v -5 19 -1
v -4 19 -1
v -1 19 -1
v 0 19 -1
v -4 19 -2
v -1 19 -2
v -3 21 1
v -2 21 1
v -3 21 -0
v -2 21 -0
v -3 22 -0
v -2 22 -0
v -3 22 -3
v -2 22 -3

# faces
f 4/4/1 2/4/1 1/4/1
f 5/4/1 2/4/1 4/4/1
f 7/4/1 4/4/1 3/4/1
f 7/4/1 6/4/1 5/4/1
f 7/4/1 5/4/1 4/4/1
f 8/4/1 6/4/1 7/4/1
f 9/4/1 6/4/1 8/4/1
f 10/4/1 6/4/1 9/4/1
f 11/4/1 9/4/1 8/4/1
f 12/4/1 9/4/1 11/4/1
f 15/4/1 14/4/1 13/4/1
f 16/4/1 14/4/1 15/4/1
f 17/4/1 14/4/1 16/4/1
f 18/4/1 14/4/1 17/4/1
f 21/4/1 20/4/1 19/4/1
f 22/4/1 20/4/1 21/4/1
f 23/4/1 21/4/1 19/4/1
f 24/4/1 21/4/1 23/4/1
f 25/4/1 20/4/1 22/4/1
f 26/4/1 20/4/1 25/4/1
f 30/4/1 28/4/1 27/4/1
f 31/4/1 28/4/1 30/4/1
f 33/4/1 30/4/1 29/4/1
f 33/4/1 32/4/1 31/4/1
f 33/4/1 31/4/1 30/4/1
f 34/4/1 32/4/1 33/4/1
f 35/4/1 32/4/1 34/4/1
f 36/4/1 32/4/1 35/4/1
f 37/4/1 35/4/1 34/4/1
f 38/4/1 35/4/1 37/4/1
f 41/4/1 40/4/1 39/4/1
f 45/4/1 41/4/1 39/4/1
f 45/4/1 42/4/1 41/4/1
f 46/4/1 42/4/1 45/4/1
f 51/4/1 48/4/1 47/4/1
f 52/4/1 48/4/1 51/4/1
f 55/4/1 50/4/1 49/4/1
f 56/4/1 50/4/1 55/4/1
f 57/2/1 44/2/1 43/2/1
f 58/2/1 44/2/1 57/2/1
f 61/4/1 54/4/1 53/4/1
f 62/4/1 54/4/1 61/4/1
f 65/4/1 60/4/1 59/4/1
f 66/4/1 60/4/1 65/4/1
f 67/4/1 64/4/1 63/4/1
f 68/4/1 64/4/1 67/4/1
f 73/4/1 70/4/1 69/4/1
f 74/4/1 70/4/1 73/4/1
f 75/4/1 72/4/1 71/4/1
f 76/4/1 72/4/1 75/4/1
f 82/2/1 78/2/1 77/2/1
f 83/2/1 78/2/1 82/2/1
f 85/4/1 80/4/1 79/4/1
f 86/4/1 80/4/1 85/4/1
f 91/2/1 82/2/1 81/2/1
f 92/2/1 82/2/1 91/2/1
f 93/2/1 84/2/1 83/2/1
f 94/2/1 84/2/1 93/2/1
f 95/4/1 88/4/1 87/4/1
f 96/4/1 88/4/1 95/4/1
f 97/4/1 90/4/1 89/4/1
f 98/4/1 90/4/1 97/4/1
f 101/4/1 100/4/1 99/4/1
f 102/4/1 101/4/1 99/4/1
f 103/4/1 101/4/1 102/4/1
f 106/1/1 105/1/1 104/1/1
f 108/1/1 106/1/1 104/1/1
f 108/1/1 107/1/1 106/1/1
f 109/1/1 107/1/1 108/1/1
f 110/1/1 107/1/1 109/1/1
f 112/1/1 111/1/1 110/1/1
f 112/1/1 110/1/1 109/1/1
f 113/1/1 111/1/1 112/1/1
f 116/4/1 115/4/1 114/4/1
f 117/4/1 115/4/1 116/4/1
f 118/4/1 115/4/1 117/4/1
f 119/4/1 115/4/1 118/4/1
f 120/4/1 118/4/1 117/4/1
f 121/4/1 118/4/1 120/4/1
f 124/2/1 123/2/1 122/2/1
f 125/2/1 123/2/1 124/2/1
f 128/4/1 127/4/1 126/4/1
f 129/4/1 128/4/1 126/4/1
f 130/4/1 128/4/1 129/4/1
f 131/4/2 132/4/2 133/4/2
f 131/4/2 133/4/2 134/4/2
f 134/4/2 133/4/2 135/4/2
f 136/4/2 137/4/2 138/4/2
f 138/4/2 137/4/2 139/4/2
f 139/4/2 137/4/2 140/4/2
f 140/4/2 137/4/2 141/4/2
f 139/4/2 140/4/2 142/4/2
f 142/4/2 140/4/2 143/4/2
f 144/2/2 145/2/2 146/2/2
f 146/2/2 145/2/2 147/2/2
f 148/2/2 149/2/2 153/2/2
f 153/2/2 149/2/2 154/2/2
f 150/4/2 151/4/2 156/4/2
f 156/4/2 151/4/2 157/4/2
f 152/2/2 153/2/2 162/2/2
f 162/2/2 153/2/2 163/2/2
f 154/2/2 155/2/2 164/2/2
f 164/2/2 155/2/2 165/2/2
f 158/4/2 159/4/2 166/4/2
f 166/4/2 159/4/2 167/4/2
f 160/4/2 161/4/2 168/4/2
f 168/4/2 161/4/2 169/4/2
f 170/4/2 171/4/2 172/4/2
f 170/4/2 172/4/2 173/4/2
f 173/4/2 172/4/2 174/4/2
f 175/1/2 176/1/2 177/1/2
f 175/1/2 177/1/2 179/1/2
f 177/1/2 178/1/2 179/1/2
f 179/1/2 178/1/2 180/1/2
f 180/1/2 178/1/2 181/1/2
f 181/1/2 182/1/2 183/1/2
f 180/1/2 181/1/2 183/1/2
f 183/1/2 182/1/2 184/1/2
f 185/4/2 186/4/2 187/4/2
f 185/4/2 187/4/2 191/4/2
f 187/4/2 188/4/2 191/4/2
f 191/4/2 188/4/2 192/4/2
f 193/4/2 194/4/2 197/4/2
f 197/4/2 194/4/2 198/4/2
f 195/4/2 196/4/2 201/4/2
f 201/4/2 196/4/2 202/4/2
f 189/2/2 190/2/2 203/2/2
f 203/2/2 190/2/2 204/2/2
f 199/4/2 200/4/2 207/4/2
f 207/4/2 200/4/2 208/4/2
f 205/4/2 206/4/2 211/4/2
f 211/4/2 206/4/2 212/4/2
f 209/4/2 210/4/2 213/4/2
f 213/4/2 210/4/2 214/4/2
f 215/4/2 216/4/2 219/4/2
f 219/4/2 216/4/2 220/4/2
f 217/4/2 218/4/2 221/4/2
f 221/4/2 218/4/2 222/4/2
f 223/4/2 224/4/2 225/4/2
f 225/4/2 224/4/2 226/4/2
f 226/4/2 224/4/2 227/4/2
f 227/4/2 224/4/2 228/4/2
f 229/4/2 230/4/2 231/4/2
f 231/4/2 230/4/2 232/4/2
f 229/4/2 231/4/2 233/4/2
f 233/4/2 231/4/2 234/4/2
f 232/4/2 230/4/2 235/4/2
f 235/4/2 230/4/2 236/4/2
f 237/4/2 238/4/2 240/4/2
f 240/4/2 238/4/2 241/4/2
f 239/4/2 240/4/2 243/4/2
f 241/4/2 242/4/2 243/4/2
f 240/4/2 241/4/2 243/4/2
f 243/4/2 242/4/2 244/4/2
f 244/4/2 242/4/2 245/4/2
f 245/4/2 242/4/2 246/4/2
f 244/4/2 245/4/2 247/4/2
f 247/4/2 245/4/2 248/4/2
f 249/4/2 250/4/2 252/4/2
f 252/4/2 250/4/2 253/4/2
f 251/4/2 252/4/2 255/4/2
f 253/4/2 254/4/2 255/4/2
f 252/4/2 253/4/2 255/4/2
f 255/4/2 254/4/2 256/4/2
f 256/4/2 254/4/2 257/4/2
f 257/4/2 254/4/2 258/4/2
f 256/4/2 257/4/2 259/4/2
f 259/4/2 257/4/2 260/4/2
f 266/4/3 262/4/3 261/4/3
f 269/4/3 262/4/3 266/4/3
f 269/4/3 266/4/3 265/4/3
f 272/4/3 268/4/3 267/4/3
f 273/4/3 268/4/3 272/4/3
f 274/4/3 268/4/3 273/4/3
f 276/4/3 264/4/3 263/4/3
f 277/4/3 264/4/3 276/4/3
f 279/4/3 270/4/3 269/4/3
f 279/4/3 269/4/3 265/4/3
f 280/4/3 272/4/3 271/4/3
f 280/4/3 273/4/3 272/4/3
f 281/4/3 275/4/3 274/4/3
f 284/4/3 279/4/3 278/4/3
f 285/4/3 270/4/3 279/4/3
f 285/4/3 279/4/3 284/4/3
f 286/4/3 280/4/3 271/4/3
f 286/4/3 281/4/3 280/4/3
f 287/4/3 275/4/3 281/4/3
f 287/4/3 281/4/3 286/4/3
f 288/4/3 270/4/3 285/4/3
f 289/4/3 270/4/3 288/4/3
f 290/4/3 286/4/3 271/4/3
f 291/4/3 286/4/3 290/4/3
f 292/4/3 286/4/3 291/4/3
f 293/4/3 275/4/3 287/4/3
f 294/4/3 275/4/3 293/4/3
f 295/4/3 283/4/3 282/4/3
f 296/4/3 283/4/3 295/4/3
f 297/4/3 288/4/3 285/4/3
f 298/4/3 288/4/3 297/4/3
f 299/4/3 292/4/3 291/4/3
f 299/4/3 293/4/3 292/4/3
f 300/4/3 293/4/3 299/4/3
f 301/4/3 288/4/3 298/4/3
f 302/4/3 288/4/3 301/4/3
f 309/4/3 304/4/3 303/4/3
f 310/4/3 304/4/3 309/4/3
f 315/4/3 308/4/3 307/4/3
f 317/4/3 306/4/3 305/4/3
f 318/4/3 306/4/3 317/4/3
f 319/4/3 312/4/3 311/4/3
f 320/4/3 312/4/3 319/4/3
f 323/4/3 314/4/3 313/4/3
f 324/4/3 314/4/3 323/4/3
f 325/4/3 316/4/3 315/4/3
f 325/4/3 315/4/3 307/4/3
f 326/4/3 316/4/3 325/4/3
f 327/4/3 316/4/3 326/4/3
f 328/4/3 316/4/3 327/4/3
f 331/5/3 322/5/3 321/5/3
f 332/3/3 323/3/3 322/3/3
f 332/5/3 322/5/3 331/5/3
f 333/3/3 323/3/3 332/3/3
f 335/4/3 327/4/3 326/4/3
f 336/4/3 327/4/3 335/4/3
f 338/4/3 330/4/3 329/4/3
f 339/4/3 330/4/3 338/4/3
f 343/4/3 337/4/3 336/4/3
f 343/4/3 335/4/3 334/4/3
f 343/4/3 336/4/3 335/4/3
f 344/4/3 337/4/3 343/4/3
f 349/5/3 341/5/3 340/5/3
f 350/3/3 342/3/3 341/3/3
f 350/5/3 341/5/3 349/5/3
f 351/3/3 342/3/3 350/3/3
f 353/4/3 343/4/3 334/4/3
f 354/4/3 343/4/3 353/4/3
f 357/4/3 348/4/3 347/4/3
f 358/4/3 348/4/3 357/4/3
f 359/4/3 352/4/3 351/4/3
f 360/4/3 352/4/3 359/4/3
f 361/4/3 356/4/3 355/4/3
f 362/4/3 356/4/3 361/4/3
f 363/4/3 346/4/3 345/4/3
f 364/4/3 346/4/3 363/4/3
f 367/4/3 366/4/3 365/4/3
f 368/4/3 366/4/3 367/4/3
f 373/1/3 370/1/3 369/1/3
f 374/1/3 370/1/3 373/1/3
f 375/4/3 372/4/3 371/4/3
f 376/4/3 372/4/3 375/4/3
f 381/4/3 378/4/3 377/4/3
f 382/4/3 378/4/3 381/4/3
f 383/1/3 380/1/3 379/1/3
f 384/1/3 380/1/3 383/1/3
f 388/2/3 386/2/3 385/2/3
f 389/2/3 386/2/3 388/2/3
f 390/2/3 388/2/3 387/2/3
f 391/2/3 388/2/3 390/2/3
f 393/2/3 392/2/3 391/2/3
f 394/2/3 392/2/3 393/2/3
f 397/2/3 396/2/3 395/2/3
f 398/2/3 396/2/3 397/2/3
f 399/4/4 400/4/4 401/4/4
f 401/4/4 400/4/4 402/4/4
f 403/1/4 404/1/4 407/1/4
f 407/1/4 404/1/4 408/1/4
f 405/4/4 406/4/4 409/4/4
f 409/4/4 406/4/4 410/4/4
f 411/4/4 412/4/4 417/4/4
f 417/4/4 412/4/4 418/4/4
f 415/4/4 416/4/4 423/4/4
f 413/4/4 414/4/4 425/4/4
f 425/4/4 414/4/4 426/4/4
f 419/4/4 420/4/4 427/4/4
f 427/4/4 420/4/4 428/4/4
f 421/4/4 422/4/4 429/4/4
f 429/4/4 422/4/4 430/4/4
f 423/4/4 424/4/4 431/4/4
f 415/4/4 423/4/4 431/4/4
f 431/4/4 424/4/4 432/4/4
f 432/4/4 424/4/4 436/4/4
f 433/4/4 434/4/4 437/4/4
f 437/4/4 434/4/4 438/4/4
f 435/4/4 436/4/4 439/4/4
f 436/4/4 424/4/4 439/4/4
f 439/4/4 424/4/4 440/4/4
f 435/4/4 439/4/4 447/4/4
f 447/4/4 439/4/4 448/4/4
f 443/4/4 444/4/4 451/4/4
f 451/4/4 444/4/4 452/4/4
f 445/4/4 446/4/4 453/4/4
f 453/4/4 446/4/4 454/4/4
f 449/4/4 450/4/4 455/4/4
f 455/4/4 450/4/4 456/4/4
f 441/4/4 442/4/4 457/4/4
f 457/4/4 442/4/4 458/4/4
f 459/4/4 460/4/4 462/4/4
f 461/4/4 462/4/4 466/4/4
f 462/4/4 460/4/4 467/4/4
f 466/4/4 462/4/4 467/4/4
f 463/4/4 464/4/4 470/4/4
f 470/4/4 464/4/4 471/4/4
f 465/4/4 466/4/4 473/4/4
f 467/4/4 468/4/4 473/4/4
f 466/4/4 467/4/4 473/4/4
f 473/4/4 468/4/4 474/4/4
f 475/1/4 476/1/4 479/1/4
f 479/1/4 476/1/4 480/1/4
f 477/4/4 478/4/4 481/4/4
f 481/4/4 478/4/4 482/4/4
f 482/4/4 478/4/4 483/4/4
f 483/4/4 478/4/4 484/4/4
f 471/4/4 472/4/4 485/4/4
f 470/4/4 471/4/4 485/4/4
f 469/4/4 470/4/4 485/4/4
f 485/4/4 472/4/4 486/4/4
f 486/4/4 472/4/4 487/4/4
f 487/4/4 472/4/4 488/4/4
f 482/4/4 483/4/4 489/4/4
f 489/4/4 483/4/4 490/4/4
f 486/4/4 487/4/4 491/4/4
f 491/4/4 487/4/4 492/4/4
f 490/4/4 483/4/4 493/4/4
f 493/4/4 483/4/4 494/4/4
f 495/2/4 496/2/4 499/2/4
f 499/2/4 496/2/4 500/2/4
f 497/1/4 498/1/4 501/1/4
f 501/1/4 498/1/4 502/1/4
f 503/2/4 504/2/4 506/2/4
f 506/2/4 504/2/4 507/2/4
f 505/2/4 506/2/4 508/2/4
f 508/2/4 506/2/4 509/2/4
f 509/2/4 510/2/4 511/2/4
f 511/2/4 510/2/4 512/2/4
f 513/2/4 514/2/4 515/2/4
f 515/2/4 514/2/4 516/2/4
f 521/4/5 518/4/5 517/4/5
f 522/4/5 518/4/5 521/4/5
f 523/4/5 520/4/5 519/4/5
f 524/4/5 520/4/5 523/4/5
f 527/4/5 526/4/5 525/4/5
f 528/4/5 526/4/5 527/4/5
f 531/4/5 530/4/5 529/4/5
f 532/4/5 530/4/5 531/4/5
f 535/2/5 534/2/5 533/2/5
f 536/2/5 534/2/5 535/2/5
f 539/4/5 538/4/5 537/4/5
f 540/4/5 538/4/5 539/4/5
f 543/4/5 542/4/5 541/4/5
f 544/4/5 542/4/5 543/4/5
f 545/4/5 542/4/5 544/4/5
f 546/4/5 542/4/5 545/4/5
f 548/2/5 545/2/5 544/2/5
f 549/2/5 545/2/5 548/2/5
f 551/2/5 548/2/5 547/2/5
f 552/2/5 548/2/5 551/2/5
f 553/2/5 550/2/5 549/2/5
f 554/2/5 550/2/5 553/2/5
f 555/2/5 553/2/5 552/2/5
f 556/2/5 553/2/5 555/2/5
f 561/4/5 558/4/5 557/4/5
f 562/4/5 558/4/5 561/4/5
f 563/4/5 560/4/5 559/4/5
f 564/4/5 560/4/5 563/4/5
f 565/4/5 561/4/5 557/4/5
f 566/4/5 561/4/5 565/4/5
f 567/4/5 560/4/5 564/4/5
f 568/4/5 560/4/5 567/4/5
f 573/4/5 570/4/5 569/4/5
f 574/4/5 570/4/5 573/4/5
f 575/4/5 572/4/5 571/4/5
f 576/4/5 572/4/5 575/4/5
f 581/4/5 578/4/5 577/4/5
f 582/4/5 578/4/5 581/4/5
f 583/4/5 580/4/5 579/4/5
f 584/4/5 580/4/5 583/4/5
f 589/4/5 586/4/5 585/4/5
f 590/4/5 586/4/5 589/4/5
f 591/4/5 588/4/5 587/4/5
f 592/4/5 588/4/5 591/4/5
f 596/4/5 594/4/5 593/4/5
f 597/4/5 594/4/5 596/4/5
f 598/4/5 594/4/5 597/4/5
f 599/4/5 594/4/5 598/4/5
f 601/4/5 596/4/5 595/4/5
f 601/4/5 597/4/5 596/4/5
f 602/4/5 597/4/5 601/4/5
f 603/4/5 600/4/5 599/4/5
f 603/4/5 599/4/5 598/4/5
f 604/4/5 600/4/5 603/4/5
f 605/4/5 601/4/5 595/4/5
f 608/4/5 600/4/5 604/4/5
f 609/4/5 606/4/5 605/4/5
f 609/4/5 605/4/5 595/4/5
f 610/4/5 606/4/5 609/4/5
f 611/4/5 606/4/5 610/4/5
f 612/4/5 608/4/5 607/4/5
f 613/4/5 600/4/5 608/4/5
f 613/4/5 608/4/5 612/4/5
f 614/4/5 600/4/5 613/4/5
f 615/4/5 611/4/5 610/4/5
f 615/4/5 612/4/5 611/4/5
f 615/4/5 613/4/5 612/4/5
f 616/4/5 613/4/5 615/4/5
f 621/4/5 618/4/5 617/4/5
f 622/4/5 618/4/5 621/4/5
f 623/4/5 620/4/5 619/4/5
f 624/4/5 620/4/5 623/4/5
f 629/4/5 626/4/5 625/4/5
f 630/4/5 626/4/5 629/4/5
f 631/4/5 628/4/5 627/4/5
f 632/4/5 628/4/5 631/4/5
f 637/4/5 634/4/5 633/4/5
f 638/4/5 634/4/5 637/4/5
f 639/4/5 636/4/5 635/4/5
f 640/4/5 636/4/5 639/4/5
f 643/1/5 642/1/5 641/1/5
f 644/1/5 642/1/5 643/1/5
f 647/1/5 646/1/5 645/1/5
f 648/1/5 646/1/5 647/1/5
f 649/4/6 650/4/6 653/4/6
f 653/4/6 650/4/6 654/4/6
f 651/4/6 652/4/6 655/4/6
f 655/4/6 652/4/6 656/4/6
f 657/4/6 658/4/6 661/4/6
f 661/4/6 658/4/6 662/4/6
f 659/4/6 660/4/6 663/4/6
f 663/4/6 660/4/6 664/4/6
f 665/2/6 666/2/6 667/2/6
f 667/2/6 666/2/6 668/2/6
f 669/4/6 670/4/6 673/4/6
f 673/4/6 670/4/6 674/4/6
f 671/4/6 672/4/6 675/4/6
f 675/4/6 672/4/6 676/4/6
f 677/4/6 678/4/6 681/4/6
f 681/4/6 678/4/6 682/4/6
f 679/4/6 680/4/6 683/4/6
f 683/4/6 680/4/6 684/4/6
f 685/4/6 686/4/6 688/4/6
f 688/4/6 686/4/6 689/4/6
f 689/4/6 686/4/6 690/4/6
f 690/4/6 686/4/6 691/4/6
f 687/4/6 688/4/6 693/4/6
f 688/4/6 689/4/6 693/4/6
f 693/4/6 689/4/6 694/4/6
f 691/4/6 692/4/6 695/4/6
f 690/4/6 691/4/6 695/4/6
f 695/4/6 692/4/6 696/4/6
f 687/4/6 693/4/6 697/4/6
f 696/4/6 692/4/6 700/4/6
f 697/4/6 698/4/6 701/4/6
f 687/4/6 697/4/6 701/4/6
f 701/4/6 698/4/6 702/4/6
f 702/4/6 698/4/6 703/4/6
f 699/4/6 700/4/6 704/4/6
f 700/4/6 692/4/6 705/4/6
f 704/4/6 700/4/6 705/4/6
f 705/4/6 692/4/6 706/4/6
f 702/4/6 703/4/6 707/4/6
f 703/4/6 704/4/6 707/4/6
f 704/4/6 705/4/6 707/4/6
f 707/4/6 705/4/6 708/4/6
f 708/4/6 705/4/6 709/4/6
f 709/4/6 705/4/6 710/4/6
f 708/2/6 709/2/6 712/2/6
f 712/2/6 709/2/6 713/2/6
f 711/2/6 712/2/6 715/2/6
f 715/2/6 712/2/6 716/2/6
f 713/2/6 714/2/6 717/2/6
f 717/2/6 714/2/6 718/2/6
f 716/2/6 717/2/6 719/2/6
f 719/2/6 717/2/6 720/2/6
f 721/4/6 722/4/6 725/4/6
f 725/4/6 722/4/6 726/4/6
f 723/4/6 724/4/6 727/4/6
f 727/4/6 724/4/6 728/4/6
f 729/4/6 730/4/6 733/4/6
f 733/4/6 730/4/6 734/4/6
f 731/4/6 732/4/6 735/4/6
f 735/4/6 732/4/6 736/4/6
f 737/4/6 738/4/6 741/4/6
f 741/4/6 738/4/6 742/4/6
f 739/4/6 740/4/6 743/4/6
f 743/4/6 740/4/6 744/4/6
f 745/4/6 746/4/6 748/4/6
f 748/4/6 746/4/6 749/4/6
f 747/4/6 748/4/6 751/4/6
f 749/4/6 750/4/6 751/4/6
f 748/4/6 749/4/6 751/4/6
f 751/4/6 750/4/6 752/4/6
f 747/4/6 751/4/6 753/4/6
f 752/4/6 750/4/6 754/4/6
f 747/4/6 753/4/6 755/4/6
f 753/4/6 754/4/6 755/4/6
f 755/4/6 754/4/6 756/4/6
f 754/4/6 750/4/6 757/4/6
f 756/4/6 754/4/6 757/4/6
f 757/4/6 750/4/6 758/4/6
f 756/4/6 757/4/6 759/4/6
f 759/4/6 757/4/6 760/4/6
f 761/1/6 762/1/6 763/1/6
f 763/1/6 762/1/6 764/1/6
f 765/1/6 766/1/6 767/1/6
f 767/1/6 766/1/6 768/1/6
